<?xml version="1.0" encoding="UTF-8" standalone="no"?>
<svg
   xmlns:dc="http://purl.org/dc/elements/1.1/"
   xmlns:cc="http://creativecommons.org/ns#"
   xmlns:rdf="http://www.w3.org/1999/02/22-rdf-syntax-ns#"
   xmlns:svg="http://www.w3.org/2000/svg"
   xmlns="http://www.w3.org/2000/svg"
   version="1.1"
   id="svg4278"
   viewBox="0 0 61.883001 72.250753"
   height="20.390768mm"
   width="17.464758mm">
  <defs
     id="defs4280" />
  <metadata
     id="metadata4283">
    <rdf:RDF>
      <cc:Work
         rdf:about="">
        <dc:format>image/svg+xml</dc:format>
        <dc:type
           rdf:resource="http://purl.org/dc/dcmitype/StillImage" />
        <dc:title></dc:title>
      </cc:Work>
    </rdf:RDF>
  </metadata>
  <g
     transform="translate(-37.629929,-250.52254)"
     id="layer1">
    <g
       transform="matrix(1.25,0,0,-1.25,43.760429,300.66579)"
       id="g74">
      <path
         id="path76"
         style="fill:#670b2d;fill-opacity:1;fill-rule:nonzero;stroke:none"
         d="M 0,0 -4.904,-3.234 19.848,-17.686 44.602,-3.234 39.697,0 19.848,-11.586 0,0 Z" />
    </g>
    <g
       transform="matrix(1.25,0,0,-1.25,88.023179,294.47692)"
       id="g78">
      <path
         id="path80"
         style="fill:#981e2e;fill-opacity:1;fill-rule:nonzero;stroke:none"
         d="m 0,0 0,15.791 -5.262,-3.082 0,-9.804 L 0,0 Z" />
    </g>
    <g
       transform="matrix(1.25,0,0,-1.25,99.512429,304.70879)"
       id="g82">
      <path
         id="path84"
         style="fill:#e11d3a;fill-opacity:1;fill-rule:nonzero;stroke:none"
         d="m 0,0 -4.904,3.234 0,23.173 -19.85,11.586 -19.848,-11.586 -4.904,2.492 24.752,14.45 L 0,28.899 0,0 Z" />
    </g>
    <g
       transform="matrix(1.25,0,0,-1.25,43.760429,271.69979)"
       id="g86">
      <path
         id="path88"
         style="fill:#981e2e;fill-opacity:1;fill-rule:nonzero;stroke:none"
         d="m 0,0 0,-23.173 -4.904,-3.234 0,28.899 L 0,0 Z" />
    </g>
    <g
       transform="matrix(1.25,0,0,-1.25,49.080309,297.21979)"
       id="g90">
      <path
         id="path92"
         style="fill:#981e2e;fill-opacity:1;fill-rule:nonzero;stroke:none"
         d="m 0,0 5.263,2.992 0,8.656 L 0,14.627 0,0 Z" />
    </g>
    <g
       transform="matrix(1.25,0,0,-1.25,49.080309,278.93616)"
       id="g94">
      <path
         id="path96"
         style="fill:#e11d3a;fill-opacity:1;fill-rule:nonzero;stroke:none"
         d="M 0,0 23.265,-13.168 29.018,-9.77 8.268,2.012 15.578,6.231 25.893,0.276 31.154,3.358 15.578,12.353 0,3.358 0,0 Z" />
    </g>
    <g
       transform="matrix(1.25,0,0,-1.25,85.352299,291.14804)"
       id="g98">
      <path
         id="path100"
         style="fill:#670b2d;fill-opacity:1;fill-rule:nonzero;stroke:none"
         d="m 0,0 2.137,-1.246 0,-3.611 -15.576,-8.993 -15.579,8.993 5.263,2.992 L -13.439,-7.82 0,0 Z" />
    </g>
  </g>
</svg>
